# xmcd CD database file generated by Grip 2.95
# 
# Track frame offsets:
#       198
#       21245
#       35413
#       54584
#       71666
#       92187
#       115266
#       135963
#       156167
#       172048
# 
# Disc length: 2460 seconds
# 
# Revision: 3
# Processed by: cddbd v1.4b41PL1 Copyright (c) Steve Scherf et al.
# Submitted via: Grip 2.95
# 
DISCID=84099a0a
DTITLE=Jan Smith - Non Stop Thrill
DYEAR=1900
DGENRE=
TTITLE0=Some Fool
TTITLE1=Did He Mention My Name?
TTITLE2=But I Did...
TTITLE3=Borderline Fool
TTITLE4=(Why Can't He) Tell the Truth?
TTITLE5=Teardrops in My Heart
TTITLE6=Should've Known Better
TTITLE7=Baptized in New Orleans
TTITLE8=When I Looked At You
TTITLE9=Somewhere Over the Rainbow
EXTD=
EXTT0=
EXTT1=
EXTT2=
EXTT3=
EXTT4=
EXTT5=
EXTT6=
EXTT7=
EXTT8=
EXTT9=
PLAYORDER=
